# xmcd
# Track frame offsets:
# 150
# 24322
# 46679
# 72189
#
# Disc length: 1216 seconds
# Revision: 0
# Processed by: cddbd v1.5.2PL0 Copyright (c) Steve Scherf et al.
# Submitted via: VisiTrax 2.10.3.257 - For more info visit www.synapsa.com
#
DISCID=2604be04
DTITLE=Chesney, Kenny - Lucky Old Sun (Bonus Disk)
DYEAR=2008
DGENRE=Country - Live
TTITLE0=Boston (Live)
TTITLE1=Got A Little Crazy (Live)
TTITLE2=Soul Of A Sailor (Live)
TTITLE3=Guitars And Tiki Bars (Live)
EXTD=
EXTT0=
EXTT1=
EXTT2=
EXTT3=
PLAYORDER=
